<?xml version="1.0" encoding="UTF-8" standalone="no"?>
<!DOCTYPE svg PUBLIC "-//W3C//DTD SVG 1.1//EN"
 "http://www.w3.org/Graphics/SVG/1.1/DTD/svg11.dtd">
<!-- Generated by graphviz version 2.38.0 (20140413.2041)
 -->
<!-- Title: G Pages: 1 -->
<svg width="141pt" height="165pt"
 viewBox="0.00 0.00 140.81 165.00" xmlns="http://www.w3.org/2000/svg" xmlns:xlink="http://www.w3.org/1999/xlink">
<g id="graph0" class="graph" transform="scale(1 1) rotate(0) translate(4 161)">
<title>G</title>
<polygon fill="white" stroke="none" points="-4,4 -4,-161 136.809,-161 136.809,4 -4,4"/>
<g id="clust1" class="cluster"><title>cluster_Global</title>
<path fill="none" stroke="gray" d="M20,-8C20,-8 112.809,-8 112.809,-8 118.809,-8 124.809,-14 124.809,-20 124.809,-20 124.809,-137 124.809,-137 124.809,-143 118.809,-149 112.809,-149 112.809,-149 20,-149 20,-149 14,-149 8,-143 8,-137 8,-137 8,-20 8,-20 8,-14 14,-8 20,-8"/>
<text text-anchor="middle" x="66.4043" y="-136.2" font-family="Times,serif" font-size="11.00" fill="gray">Global</text>
</g>
<g id="clust2" class="cluster"><title>cluster_\AJDurant</title>
<path fill="none" stroke="gray" d="M28,-16C28,-16 104.809,-16 104.809,-16 110.809,-16 116.809,-22 116.809,-28 116.809,-28 116.809,-110 116.809,-110 116.809,-116 110.809,-122 104.809,-122 104.809,-122 28,-122 28,-122 22,-122 16,-116 16,-110 16,-110 16,-28 16,-28 16,-22 22,-16 28,-16"/>
<text text-anchor="middle" x="66.4043" y="-109.2" font-family="Times,serif" font-size="11.00" fill="gray">AJDurant</text>
</g>
<g id="clust3" class="cluster"><title>cluster_\AJDurant\ACRCloud</title>
<path fill="none" stroke="gray" d="M36,-24C36,-24 96.8086,-24 96.8086,-24 102.809,-24 108.809,-30 108.809,-36 108.809,-36 108.809,-83 108.809,-83 108.809,-89 102.809,-95 96.8086,-95 96.8086,-95 36,-95 36,-95 30,-95 24,-89 24,-83 24,-83 24,-36 24,-36 24,-30 30,-24 36,-24"/>
<text text-anchor="middle" x="66.4043" y="-82.2" font-family="Times,serif" font-size="11.00" fill="gray">ACRCloud</text>
</g>
<!-- \\AJDurant\\ACRCloud\\ACRCloud -->
<g id="node1" class="node"><title>\\AJDurant\\ACRCloud\\ACRCloud</title>
<polygon fill="none" stroke="black" points="100.713,-68 32.0954,-68 32.0954,-32 100.713,-32 100.713,-68"/>
<text text-anchor="middle" x="66.4043" y="-46.7" font-family="Courier,monospace" font-size="11.00">ACRCloud</text>
</g>
</g>
</svg>
